<svg width="80" height="24" viewBox="0 0 80 24" fill="none" xmlns="http://www.w3.org/2000/svg">
<path d="M11.1312 1.50326C10.3365 0.657677 9.19065 0 7.44513 0H2.37432C1.94526 0 1.58932 0.310048 1.54544 0.723445L0.00469792 14.685C-0.0440598 15.1266 0.292369 15.5212 0.750691 15.5681C0.779946 15.5728 0.809201 15.5728 0.838455 15.5728H2.64737C3.07644 15.5728 3.43237 15.2628 3.47625 14.8494L4.81221 2.74815L6.99656 2.77164C7.45976 2.77634 7.9132 2.91727 8.29351 3.17564C8.6592 3.42931 9.09314 3.97425 9.16628 4.6742C9.23454 5.34597 8.97125 6.00365 8.45929 6.45933C8.03022 6.83044 7.47438 7.01835 6.52361 7.01835H6.4846C6.05553 7.01835 5.6996 7.3284 5.65572 7.7418L5.44119 9.72422L6.59187 9.72892C7.47926 9.72892 8.235 9.69134 9.24916 9.29203C9.81963 9.04306 10.3413 8.69543 10.785 8.27264C11.1995 7.86394 11.5749 7.3331 11.887 6.62844C12.199 5.92379 12.3502 5.10639 12.316 4.30309C12.2624 3.00182 11.5652 1.95424 11.1312 1.50326Z" fill="#333333"/>
<path d="M11.1312 1.50326C10.3365 0.657677 9.19065 0 7.44513 0H2.37432C1.94526 0 1.58932 0.310048 1.54544 0.723445L0.00469792 14.685C-0.0440598 15.1266 0.292369 15.5212 0.750691 15.5681C0.779946 15.5728 0.809201 15.5728 0.838455 15.5728H2.64737C3.07644 15.5728 3.43237 15.2628 3.47625 14.8494L4.81221 2.74815L6.99656 2.77164C7.45976 2.77634 7.9132 2.91727 8.29351 3.17564C8.6592 3.42931 9.09314 3.97425 9.16628 4.6742C9.23454 5.34597 8.97125 6.00365 8.45929 6.45933C8.03022 6.83044 7.47438 7.01835 6.52361 7.01835H6.4846C6.05553 7.01835 5.6996 7.3284 5.65572 7.7418L5.44119 9.72422L6.59187 9.72892C7.47926 9.72892 8.235 9.69134 9.24916 9.29203C9.81963 9.04306 10.3413 8.69543 10.785 8.27264C11.1995 7.86394 11.5749 7.3331 11.887 6.62844C12.199 5.92379 12.3502 5.10639 12.316 4.30309C12.2624 3.00182 11.5652 1.95424 11.1312 1.50326Z" fill="black" fill-opacity="0.2"/>
<path d="M11.1312 1.50326C10.3365 0.657677 9.19065 0 7.44513 0H2.37432C1.94526 0 1.58932 0.310048 1.54544 0.723445L0.00469792 14.685C-0.0440598 15.1266 0.292369 15.5212 0.750691 15.5681C0.779946 15.5728 0.809201 15.5728 0.838455 15.5728H2.64737C3.07644 15.5728 3.43237 15.2628 3.47625 14.8494L4.81221 2.74815L6.99656 2.77164C7.45976 2.77634 7.9132 2.91727 8.29351 3.17564C8.6592 3.42931 9.09314 3.97425 9.16628 4.6742C9.23454 5.34597 8.97125 6.00365 8.45929 6.45933C8.03022 6.83044 7.47438 7.01835 6.52361 7.01835H6.4846C6.05553 7.01835 5.6996 7.3284 5.65572 7.7418L5.44119 9.72422L6.59187 9.72892C7.47926 9.72892 8.235 9.69134 9.24916 9.29203C9.81963 9.04306 10.3413 8.69543 10.785 8.27264C11.1995 7.86394 11.5749 7.3331 11.887 6.62844C12.199 5.92379 12.3502 5.10639 12.316 4.30309C12.2624 3.00182 11.5652 1.95424 11.1312 1.50326Z" fill="black" fill-opacity="0.2"/>
<path d="M11.1312 1.50326C10.3365 0.657677 9.19065 0 7.44513 0H2.37432C1.94526 0 1.58932 0.310048 1.54544 0.723445L0.00469792 14.685C-0.0440598 15.1266 0.292369 15.5212 0.750691 15.5681C0.779946 15.5728 0.809201 15.5728 0.838455 15.5728H2.64737C3.07644 15.5728 3.43237 15.2628 3.47625 14.8494L4.81221 2.74815L6.99656 2.77164C7.45976 2.77634 7.9132 2.91727 8.29351 3.17564C8.6592 3.42931 9.09314 3.97425 9.16628 4.6742C9.23454 5.34597 8.97125 6.00365 8.45929 6.45933C8.03022 6.83044 7.47438 7.01835 6.52361 7.01835H6.4846C6.05553 7.01835 5.6996 7.3284 5.65572 7.7418L5.44119 9.72422L6.59187 9.72892C7.47926 9.72892 8.235 9.69134 9.24916 9.29203C9.81963 9.04306 10.3413 8.69543 10.785 8.27264C11.1995 7.86394 11.5749 7.3331 11.887 6.62844C12.199 5.92379 12.3502 5.10639 12.316 4.30309C12.2624 3.00182 11.5652 1.95424 11.1312 1.50326Z" fill="black" fill-opacity="0.2"/>
<path d="M45.5485 1.50326C44.7538 0.657677 43.608 0 41.8625 0H36.7868C36.3577 0 36.0018 0.310048 35.9579 0.723445L34.4269 14.685C34.3781 15.1266 34.7146 15.5212 35.1729 15.5682C35.2022 15.5728 35.2314 15.5728 35.2607 15.5728H37.0696C37.4986 15.5728 37.8546 15.2628 37.9033 14.8541L39.2295 2.75285L41.4139 2.77634C41.8771 2.78103 42.3305 2.92196 42.7108 3.18034C43.0765 3.43401 43.5105 3.97895 43.5836 4.6789C43.6519 5.35067 43.3886 6.00835 42.8766 6.46402C42.4476 6.83514 41.8917 7.02305 40.9409 7.02305H40.9019C40.4729 7.02305 40.1169 7.3331 40.0731 7.74649L39.8536 9.72892L41.0043 9.73362C41.8917 9.73362 42.6475 9.69604 43.6616 9.29673C44.2321 9.04775 44.7538 8.70012 45.1975 8.27733C45.6119 7.86863 45.9874 7.33779 46.2994 6.63314C46.6163 5.93318 46.7626 5.11109 46.7285 4.30778C46.6797 3.00182 45.9776 1.95424 45.5485 1.50326Z" fill="#333333"/>
<path d="M45.5485 1.50326C44.7538 0.657677 43.608 0 41.8625 0H36.7868C36.3577 0 36.0018 0.310048 35.9579 0.723445L34.4269 14.685C34.3781 15.1266 34.7146 15.5212 35.1729 15.5682C35.2022 15.5728 35.2314 15.5728 35.2607 15.5728H37.0696C37.4986 15.5728 37.8546 15.2628 37.9033 14.8541L39.2295 2.75285L41.4139 2.77634C41.8771 2.78103 42.3305 2.92196 42.7108 3.18034C43.0765 3.43401 43.5105 3.97895 43.5836 4.6789C43.6519 5.35067 43.3886 6.00835 42.8766 6.46402C42.4476 6.83514 41.8917 7.02305 40.9409 7.02305H40.9019C40.4729 7.02305 40.1169 7.3331 40.0731 7.74649L39.8536 9.72892L41.0043 9.73362C41.8917 9.73362 42.6475 9.69604 43.6616 9.29673C44.2321 9.04775 44.7538 8.70012 45.1975 8.27733C45.6119 7.86863 45.9874 7.33779 46.2994 6.63314C46.6163 5.93318 46.7626 5.11109 46.7285 4.30778C46.6797 3.00182 45.9776 1.95424 45.5485 1.50326Z" fill="black" fill-opacity="0.2"/>
<path d="M45.5485 1.50326C44.7538 0.657677 43.608 0 41.8625 0H36.7868C36.3577 0 36.0018 0.310048 35.9579 0.723445L34.4269 14.685C34.3781 15.1266 34.7146 15.5212 35.1729 15.5682C35.2022 15.5728 35.2314 15.5728 35.2607 15.5728H37.0696C37.4986 15.5728 37.8546 15.2628 37.9033 14.8541L39.2295 2.75285L41.4139 2.77634C41.8771 2.78103 42.3305 2.92196 42.7108 3.18034C43.0765 3.43401 43.5105 3.97895 43.5836 4.6789C43.6519 5.35067 43.3886 6.00835 42.8766 6.46402C42.4476 6.83514 41.8917 7.02305 40.9409 7.02305H40.9019C40.4729 7.02305 40.1169 7.3331 40.0731 7.74649L39.8536 9.72892L41.0043 9.73362C41.8917 9.73362 42.6475 9.69604 43.6616 9.29673C44.2321 9.04775 44.7538 8.70012 45.1975 8.27733C45.6119 7.86863 45.9874 7.33779 46.2994 6.63314C46.6163 5.93318 46.7626 5.11109 46.7285 4.30778C46.6797 3.00182 45.9776 1.95424 45.5485 1.50326Z" fill="black" fill-opacity="0.2"/>
<path d="M45.5485 1.50326C44.7538 0.657677 43.608 0 41.8625 0H36.7868C36.3577 0 36.0018 0.310048 35.9579 0.723445L34.4269 14.685C34.3781 15.1266 34.7146 15.5212 35.1729 15.5682C35.2022 15.5728 35.2314 15.5728 35.2607 15.5728H37.0696C37.4986 15.5728 37.8546 15.2628 37.9033 14.8541L39.2295 2.75285L41.4139 2.77634C41.8771 2.78103 42.3305 2.92196 42.7108 3.18034C43.0765 3.43401 43.5105 3.97895 43.5836 4.6789C43.6519 5.35067 43.3886 6.00835 42.8766 6.46402C42.4476 6.83514 41.8917 7.02305 40.9409 7.02305H40.9019C40.4729 7.02305 40.1169 7.3331 40.0731 7.74649L39.8536 9.72892L41.0043 9.73362C41.8917 9.73362 42.6475 9.69604 43.6616 9.29673C44.2321 9.04775 44.7538 8.70012 45.1975 8.27733C45.6119 7.86863 45.9874 7.33779 46.2994 6.63314C46.6163 5.93318 46.7626 5.11109 46.7285 4.30778C46.6797 3.00182 45.9776 1.95424 45.5485 1.50326Z" fill="black" fill-opacity="0.2"/>
<path d="M79.5093 15.2864L77.6224 15.3803L77.8174 13.5811C77.8418 13.3368 77.6565 13.116 77.403 13.0925C77.3786 13.0925 77.3542 13.0878 77.3298 13.0925L76.4912 13.1348C76.262 13.1442 76.0768 13.318 76.0524 13.5388L75.8476 15.479L73.8192 15.5823C73.5901 15.5917 73.4048 15.7655 73.3804 15.9863C73.356 16.2071 73.3268 16.4796 73.3024 16.7098C73.278 16.954 73.4633 17.1748 73.7169 17.1983C73.7412 17.1983 73.7656 17.203 73.79 17.1983L75.6769 17.1044L75.4819 18.9036C75.4575 19.1479 75.6428 19.3687 75.8963 19.3921C75.9207 19.3921 75.9451 19.3968 75.9695 19.3921L76.8081 19.3499C77.0373 19.3405 77.2226 19.1667 77.247 18.9459L77.4517 17.0057L79.4801 16.9024C79.7092 16.893 79.8945 16.7192 79.9189 16.5031C79.9433 16.2776 79.9725 16.0098 79.9969 15.7796C80.0262 15.5353 79.8409 15.3145 79.5873 15.2864C79.563 15.2864 79.5386 15.2864 79.5093 15.2864Z" fill="#34AA54"/>
<path d="M38.8061 16.9632C38.5721 16.7424 38.5672 16.3807 38.8012 16.1552C38.9768 15.9814 39.2449 15.9344 39.4741 16.0378C39.6545 16.1317 40.3469 16.5404 40.459 16.5968C44.5595 18.7718 49.055 20.1858 53.7016 20.7637C60.5765 21.6233 67.2124 20.9187 73.4436 18.2645C73.5216 18.2269 73.6143 18.2222 73.6972 18.241C73.7313 18.2504 73.7605 18.2645 73.7898 18.2786C73.8971 18.3443 73.9653 18.4524 73.9702 18.5745C73.9702 18.7014 73.9019 18.8188 73.7898 18.8893C71.0691 20.5945 67.7731 21.8629 64.3552 22.685C60.9373 23.5071 57.4072 23.6856 53.7601 23.2299C51.3954 22.934 49.0111 22.2904 46.6269 21.3274C43.4527 20.0449 39.7666 17.8511 38.8061 16.9632Z" fill="#34AA54"/>
<path d="M67.6038 15.4794C67.9305 15.5405 68.2669 15.5734 68.5985 15.5734C69.5151 15.5734 70.3928 15.3667 71.0071 15.0003C72.0408 14.3849 72.7526 13.3796 72.972 12.2333C73.0208 11.975 73.0111 11.6931 72.9964 11.4911C72.9623 10.7723 72.6064 10.0912 72.426 9.8328C72.148 9.4429 71.6995 9.09996 71.0022 8.74764C70.8511 8.67247 70.6951 8.59731 70.5488 8.53154C70.1929 8.36243 69.8564 8.2074 69.5639 8.0054C68.9983 7.6014 68.7838 7.14572 68.9057 6.61489C69.0227 6.09344 69.5346 5.7693 70.2367 5.7693C70.3343 5.7693 70.4366 5.774 70.5342 5.78809C70.895 5.83507 71.3435 5.95721 71.8652 6.14981C71.953 6.1827 72.0505 6.20149 72.1432 6.20149C72.426 6.20149 72.6844 6.05586 72.8209 5.81628L73.5279 4.59488C72.6551 4.07343 71.6751 3.58018 70.4415 3.47213C70.2855 3.45804 70.1295 3.45334 69.9686 3.45334C69.3591 3.45334 68.2035 3.56139 67.3064 4.26604C66.8188 4.65125 65.9899 5.48744 65.8729 6.80279C65.8144 7.45577 65.9948 8.37652 66.2581 8.77113C66.6628 9.39122 67.1699 9.72945 68.1548 10.2556C69.4859 10.9696 69.6712 11.2703 69.7882 11.4676C69.793 11.477 69.7979 11.4864 69.8028 11.4958C70.0271 11.8575 70.0368 12.3226 69.8272 12.6514C69.5931 13.0131 69.1884 13.1964 68.6229 13.1964C68.3547 13.1917 68.0914 13.1588 67.8281 13.0977C67.4624 13.0037 67.1114 12.8769 66.7749 12.7078C66.4044 12.5293 65.9509 12.6608 65.751 13.0131L65.0294 14.2674C65.2976 14.4553 66.497 15.2633 67.6038 15.4794Z" fill="#333333"/>
<path d="M67.6038 15.4794C67.9305 15.5405 68.2669 15.5734 68.5985 15.5734C69.5151 15.5734 70.3928 15.3667 71.0071 15.0003C72.0408 14.3849 72.7526 13.3796 72.972 12.2333C73.0208 11.975 73.0111 11.6931 72.9964 11.4911C72.9623 10.7723 72.6064 10.0912 72.426 9.8328C72.148 9.4429 71.6995 9.09996 71.0022 8.74764C70.8511 8.67247 70.6951 8.59731 70.5488 8.53154C70.1929 8.36243 69.8564 8.2074 69.5639 8.0054C68.9983 7.6014 68.7838 7.14572 68.9057 6.61489C69.0227 6.09344 69.5346 5.7693 70.2367 5.7693C70.3343 5.7693 70.4366 5.774 70.5342 5.78809C70.895 5.83507 71.3435 5.95721 71.8652 6.14981C71.953 6.1827 72.0505 6.20149 72.1432 6.20149C72.426 6.20149 72.6844 6.05586 72.8209 5.81628L73.5279 4.59488C72.6551 4.07343 71.6751 3.58018 70.4415 3.47213C70.2855 3.45804 70.1295 3.45334 69.9686 3.45334C69.3591 3.45334 68.2035 3.56139 67.3064 4.26604C66.8188 4.65125 65.9899 5.48744 65.8729 6.80279C65.8144 7.45577 65.9948 8.37652 66.2581 8.77113C66.6628 9.39122 67.1699 9.72945 68.1548 10.2556C69.4859 10.9696 69.6712 11.2703 69.7882 11.4676C69.793 11.477 69.7979 11.4864 69.8028 11.4958C70.0271 11.8575 70.0368 12.3226 69.8272 12.6514C69.5931 13.0131 69.1884 13.1964 68.6229 13.1964C68.3547 13.1917 68.0914 13.1588 67.8281 13.0977C67.4624 13.0037 67.1114 12.8769 66.7749 12.7078C66.4044 12.5293 65.9509 12.6608 65.751 13.0131L65.0294 14.2674C65.2976 14.4553 66.497 15.2633 67.6038 15.4794Z" fill="black" fill-opacity="0.2"/>
<path d="M67.6038 15.4794C67.9305 15.5405 68.2669 15.5734 68.5985 15.5734C69.5151 15.5734 70.3928 15.3667 71.0071 15.0003C72.0408 14.3849 72.7526 13.3796 72.972 12.2333C73.0208 11.975 73.0111 11.6931 72.9964 11.4911C72.9623 10.7723 72.6064 10.0912 72.426 9.8328C72.148 9.4429 71.6995 9.09996 71.0022 8.74764C70.8511 8.67247 70.6951 8.59731 70.5488 8.53154C70.1929 8.36243 69.8564 8.2074 69.5639 8.0054C68.9983 7.6014 68.7838 7.14572 68.9057 6.61489C69.0227 6.09344 69.5346 5.7693 70.2367 5.7693C70.3343 5.7693 70.4366 5.774 70.5342 5.78809C70.895 5.83507 71.3435 5.95721 71.8652 6.14981C71.953 6.1827 72.0505 6.20149 72.1432 6.20149C72.426 6.20149 72.6844 6.05586 72.8209 5.81628L73.5279 4.59488C72.6551 4.07343 71.6751 3.58018 70.4415 3.47213C70.2855 3.45804 70.1295 3.45334 69.9686 3.45334C69.3591 3.45334 68.2035 3.56139 67.3064 4.26604C66.8188 4.65125 65.9899 5.48744 65.8729 6.80279C65.8144 7.45577 65.9948 8.37652 66.2581 8.77113C66.6628 9.39122 67.1699 9.72945 68.1548 10.2556C69.4859 10.9696 69.6712 11.2703 69.7882 11.4676C69.793 11.477 69.7979 11.4864 69.8028 11.4958C70.0271 11.8575 70.0368 12.3226 69.8272 12.6514C69.5931 13.0131 69.1884 13.1964 68.6229 13.1964C68.3547 13.1917 68.0914 13.1588 67.8281 13.0977C67.4624 13.0037 67.1114 12.8769 66.7749 12.7078C66.4044 12.5293 65.9509 12.6608 65.751 13.0131L65.0294 14.2674C65.2976 14.4553 66.497 15.2633 67.6038 15.4794Z" fill="black" fill-opacity="0.2"/>
<path d="M67.6038 15.4794C67.9305 15.5405 68.2669 15.5734 68.5985 15.5734C69.5151 15.5734 70.3928 15.3667 71.0071 15.0003C72.0408 14.3849 72.7526 13.3796 72.972 12.2333C73.0208 11.975 73.0111 11.6931 72.9964 11.4911C72.9623 10.7723 72.6064 10.0912 72.426 9.8328C72.148 9.4429 71.6995 9.09996 71.0022 8.74764C70.8511 8.67247 70.6951 8.59731 70.5488 8.53154C70.1929 8.36243 69.8564 8.2074 69.5639 8.0054C68.9983 7.6014 68.7838 7.14572 68.9057 6.61489C69.0227 6.09344 69.5346 5.7693 70.2367 5.7693C70.3343 5.7693 70.4366 5.774 70.5342 5.78809C70.895 5.83507 71.3435 5.95721 71.8652 6.14981C71.953 6.1827 72.0505 6.20149 72.1432 6.20149C72.426 6.20149 72.6844 6.05586 72.8209 5.81628L73.5279 4.59488C72.6551 4.07343 71.6751 3.58018 70.4415 3.47213C70.2855 3.45804 70.1295 3.45334 69.9686 3.45334C69.3591 3.45334 68.2035 3.56139 67.3064 4.26604C66.8188 4.65125 65.9899 5.48744 65.8729 6.80279C65.8144 7.45577 65.9948 8.37652 66.2581 8.77113C66.6628 9.39122 67.1699 9.72945 68.1548 10.2556C69.4859 10.9696 69.6712 11.2703 69.7882 11.4676C69.793 11.477 69.7979 11.4864 69.8028 11.4958C70.0271 11.8575 70.0368 12.3226 69.8272 12.6514C69.5931 13.0131 69.1884 13.1964 68.6229 13.1964C68.3547 13.1917 68.0914 13.1588 67.8281 13.0977C67.4624 13.0037 67.1114 12.8769 66.7749 12.7078C66.4044 12.5293 65.9509 12.6608 65.751 13.0131L65.0294 14.2674C65.2976 14.4553 66.497 15.2633 67.6038 15.4794Z" fill="black" fill-opacity="0.2"/>
<path d="M23.1539 12.9839C22.7102 13.0074 22.4811 12.7396 22.4811 12.284C22.4957 12.1618 23.1149 6.55277 23.3538 4.33546C23.4026 3.89388 23.071 3.49928 22.6127 3.4523C22.5834 3.4476 22.5542 3.4476 22.5249 3.4476H21.1305C20.7258 3.4476 20.3796 3.72946 20.3113 4.11467C20.3113 4.11467 20.2138 4.84282 20.2138 4.8663C19.3606 4.10058 18.4683 3.76704 17.4931 3.76704C16.006 3.76704 14.8017 4.43881 13.8509 5.71659C12.9002 6.99436 12.4516 8.70901 12.4516 10.8136C12.4516 12.3403 12.7783 13.4913 13.4657 14.3228C14.1386 15.1355 15.0162 15.5723 16.1279 15.5723C16.7618 15.5723 17.42 15.4126 17.9368 15.1167C18.4537 14.816 18.8974 14.412 19.2338 13.9281C19.2387 13.9422 19.2435 13.9563 19.2484 13.9751V13.9798C19.6629 15.018 20.6331 15.5676 21.6132 15.5676C22.72 15.5676 23.7536 14.8771 23.8999 14.0362C23.9389 13.8248 24.0169 12.9557 24.0169 12.9557C24.0169 12.9557 23.2904 12.9792 23.1539 12.9839ZM17.4883 13.0356C16.6545 13.0356 15.5331 12.3215 15.3966 10.978C15.338 10.4143 15.3332 10.0197 15.3966 9.5452C15.5233 8.61036 15.9085 7.86343 16.1767 7.48761C16.4741 7.07422 17.2396 6.43533 18.2879 6.42124C18.8242 6.41184 19.4873 6.58096 19.9847 6.97087C19.8579 8.1359 19.6872 9.72372 19.4727 11.7014C19.1314 12.5705 18.3366 13.0356 17.4883 13.0356Z" fill="#333333"/>
<path d="M23.1539 12.9839C22.7102 13.0074 22.4811 12.7396 22.4811 12.284C22.4957 12.1618 23.1149 6.55277 23.3538 4.33546C23.4026 3.89388 23.071 3.49928 22.6127 3.4523C22.5834 3.4476 22.5542 3.4476 22.5249 3.4476H21.1305C20.7258 3.4476 20.3796 3.72946 20.3113 4.11467C20.3113 4.11467 20.2138 4.84282 20.2138 4.8663C19.3606 4.10058 18.4683 3.76704 17.4931 3.76704C16.006 3.76704 14.8017 4.43881 13.8509 5.71659C12.9002 6.99436 12.4516 8.70901 12.4516 10.8136C12.4516 12.3403 12.7783 13.4913 13.4657 14.3228C14.1386 15.1355 15.0162 15.5723 16.1279 15.5723C16.7618 15.5723 17.42 15.4126 17.9368 15.1167C18.4537 14.816 18.8974 14.412 19.2338 13.9281C19.2387 13.9422 19.2435 13.9563 19.2484 13.9751V13.9798C19.6629 15.018 20.6331 15.5676 21.6132 15.5676C22.72 15.5676 23.7536 14.8771 23.8999 14.0362C23.9389 13.8248 24.0169 12.9557 24.0169 12.9557C24.0169 12.9557 23.2904 12.9792 23.1539 12.9839ZM17.4883 13.0356C16.6545 13.0356 15.5331 12.3215 15.3966 10.978C15.338 10.4143 15.3332 10.0197 15.3966 9.5452C15.5233 8.61036 15.9085 7.86343 16.1767 7.48761C16.4741 7.07422 17.2396 6.43533 18.2879 6.42124C18.8242 6.41184 19.4873 6.58096 19.9847 6.97087C19.8579 8.1359 19.6872 9.72372 19.4727 11.7014C19.1314 12.5705 18.3366 13.0356 17.4883 13.0356Z" fill="black" fill-opacity="0.2"/>
<path d="M23.1539 12.9839C22.7102 13.0074 22.4811 12.7396 22.4811 12.284C22.4957 12.1618 23.1149 6.55277 23.3538 4.33546C23.4026 3.89388 23.071 3.49928 22.6127 3.4523C22.5834 3.4476 22.5542 3.4476 22.5249 3.4476H21.1305C20.7258 3.4476 20.3796 3.72946 20.3113 4.11467C20.3113 4.11467 20.2138 4.84282 20.2138 4.8663C19.3606 4.10058 18.4683 3.76704 17.4931 3.76704C16.006 3.76704 14.8017 4.43881 13.8509 5.71659C12.9002 6.99436 12.4516 8.70901 12.4516 10.8136C12.4516 12.3403 12.7783 13.4913 13.4657 14.3228C14.1386 15.1355 15.0162 15.5723 16.1279 15.5723C16.7618 15.5723 17.42 15.4126 17.9368 15.1167C18.4537 14.816 18.8974 14.412 19.2338 13.9281C19.2387 13.9422 19.2435 13.9563 19.2484 13.9751V13.9798C19.6629 15.018 20.6331 15.5676 21.6132 15.5676C22.72 15.5676 23.7536 14.8771 23.8999 14.0362C23.9389 13.8248 24.0169 12.9557 24.0169 12.9557C24.0169 12.9557 23.2904 12.9792 23.1539 12.9839ZM17.4883 13.0356C16.6545 13.0356 15.5331 12.3215 15.3966 10.978C15.338 10.4143 15.3332 10.0197 15.3966 9.5452C15.5233 8.61036 15.9085 7.86343 16.1767 7.48761C16.4741 7.07422 17.2396 6.43533 18.2879 6.42124C18.8242 6.41184 19.4873 6.58096 19.9847 6.97087C19.8579 8.1359 19.6872 9.72372 19.4727 11.7014C19.1314 12.5705 18.3366 13.0356 17.4883 13.0356Z" fill="black" fill-opacity="0.2"/>
<path d="M23.1539 12.9839C22.7102 13.0074 22.4811 12.7396 22.4811 12.284C22.4957 12.1618 23.1149 6.55277 23.3538 4.33546C23.4026 3.89388 23.071 3.49928 22.6127 3.4523C22.5834 3.4476 22.5542 3.4476 22.5249 3.4476H21.1305C20.7258 3.4476 20.3796 3.72946 20.3113 4.11467C20.3113 4.11467 20.2138 4.84282 20.2138 4.8663C19.3606 4.10058 18.4683 3.76704 17.4931 3.76704C16.006 3.76704 14.8017 4.43881 13.8509 5.71659C12.9002 6.99436 12.4516 8.70901 12.4516 10.8136C12.4516 12.3403 12.7783 13.4913 13.4657 14.3228C14.1386 15.1355 15.0162 15.5723 16.1279 15.5723C16.7618 15.5723 17.42 15.4126 17.9368 15.1167C18.4537 14.816 18.8974 14.412 19.2338 13.9281C19.2387 13.9422 19.2435 13.9563 19.2484 13.9751V13.9798C19.6629 15.018 20.6331 15.5676 21.6132 15.5676C22.72 15.5676 23.7536 14.8771 23.8999 14.0362C23.9389 13.8248 24.0169 12.9557 24.0169 12.9557C24.0169 12.9557 23.2904 12.9792 23.1539 12.9839ZM17.4883 13.0356C16.6545 13.0356 15.5331 12.3215 15.3966 10.978C15.338 10.4143 15.3332 10.0197 15.3966 9.5452C15.5233 8.61036 15.9085 7.86343 16.1767 7.48761C16.4741 7.07422 17.2396 6.43533 18.2879 6.42124C18.8242 6.41184 19.4873 6.58096 19.9847 6.97087C19.8579 8.1359 19.6872 9.72372 19.4727 11.7014C19.1314 12.5705 18.3366 13.0356 17.4883 13.0356Z" fill="black" fill-opacity="0.2"/>
<path d="M50.7222 12.9983C50.2785 13.0218 50.0494 12.7541 50.0494 12.2984C50.064 12.1762 51.0538 3.10969 51.2976 0.89238C51.3463 0.450797 51.0148 0.0561912 50.5565 0.00921429C50.5272 0.0045166 50.498 0.0045166 50.4687 0.0045166H49.0694C48.6647 0.0045166 48.3185 0.286378 48.2502 0.671589C48.2502 0.671589 46.8753 12.8715 46.8801 13.205C46.8655 13.4728 46.9045 13.7359 46.9874 13.9895C47.3238 14.9808 48.2161 15.5774 49.1717 15.5727C50.2785 15.568 51.3073 14.8821 51.4585 14.0412C51.4975 13.8298 51.5755 12.9607 51.5755 12.9607C51.5755 12.9607 50.8539 12.9889 50.7222 12.9983Z" fill="#333333"/>
<path d="M50.7222 12.9983C50.2785 13.0218 50.0494 12.7541 50.0494 12.2984C50.064 12.1762 51.0538 3.10969 51.2976 0.89238C51.3463 0.450797 51.0148 0.0561912 50.5565 0.00921429C50.5272 0.0045166 50.498 0.0045166 50.4687 0.0045166H49.0694C48.6647 0.0045166 48.3185 0.286378 48.2502 0.671589C48.2502 0.671589 46.8753 12.8715 46.8801 13.205C46.8655 13.4728 46.9045 13.7359 46.9874 13.9895C47.3238 14.9808 48.2161 15.5774 49.1717 15.5727C50.2785 15.568 51.3073 14.8821 51.4585 14.0412C51.4975 13.8298 51.5755 12.9607 51.5755 12.9607C51.5755 12.9607 50.8539 12.9889 50.7222 12.9983Z" fill="black" fill-opacity="0.2"/>
<path d="M50.7222 12.9983C50.2785 13.0218 50.0494 12.7541 50.0494 12.2984C50.064 12.1762 51.0538 3.10969 51.2976 0.89238C51.3463 0.450797 51.0148 0.0561912 50.5565 0.00921429C50.5272 0.0045166 50.498 0.0045166 50.4687 0.0045166H49.0694C48.6647 0.0045166 48.3185 0.286378 48.2502 0.671589C48.2502 0.671589 46.8753 12.8715 46.8801 13.205C46.8655 13.4728 46.9045 13.7359 46.9874 13.9895C47.3238 14.9808 48.2161 15.5774 49.1717 15.5727C50.2785 15.568 51.3073 14.8821 51.4585 14.0412C51.4975 13.8298 51.5755 12.9607 51.5755 12.9607C51.5755 12.9607 50.8539 12.9889 50.7222 12.9983Z" fill="black" fill-opacity="0.2"/>
<path d="M50.7222 12.9983C50.2785 13.0218 50.0494 12.7541 50.0494 12.2984C50.064 12.1762 51.0538 3.10969 51.2976 0.89238C51.3463 0.450797 51.0148 0.0561912 50.5565 0.00921429C50.5272 0.0045166 50.498 0.0045166 50.4687 0.0045166H49.0694C48.6647 0.0045166 48.3185 0.286378 48.2502 0.671589C48.2502 0.671589 46.8753 12.8715 46.8801 13.205C46.8655 13.4728 46.9045 13.7359 46.9874 13.9895C47.3238 14.9808 48.2161 15.5774 49.1717 15.5727C50.2785 15.568 51.3073 14.8821 51.4585 14.0412C51.4975 13.8298 51.5755 12.9607 51.5755 12.9607C51.5755 12.9607 50.8539 12.9889 50.7222 12.9983Z" fill="black" fill-opacity="0.2"/>
<path d="M63.2387 13.0034C62.795 13.0269 62.5658 12.7591 62.5658 12.3035C62.5804 12.1813 63.1948 6.56288 63.4337 4.34557C63.4825 3.90398 63.1509 3.50938 62.6926 3.4624C62.6633 3.4577 62.6341 3.4577 62.6048 3.4577H61.2103C60.8056 3.4577 60.4595 3.73956 60.3912 4.12478L59.5526 11.7397C59.3917 12.1907 59.0699 12.5712 58.6505 12.8202C58.1483 13.1021 57.4608 13.1443 56.8026 12.9423C56.3589 12.8061 55.8567 12.3739 55.8567 11.5941C55.9006 11.2042 56.4077 6.56757 56.6466 4.35026C56.6953 3.90868 56.3638 3.51408 55.9055 3.4671C55.8762 3.4624 55.8469 3.4624 55.8177 3.4624H54.4232C54.0185 3.4624 53.6723 3.74426 53.6041 4.12947C53.6041 4.12947 52.6289 12.8766 52.6289 13.2101C52.6192 13.445 52.6435 13.6752 52.7069 13.9054C53.1945 15.4368 54.55 15.573 54.9205 15.5824C55.5056 15.6012 56.4515 15.559 57.6169 15.0093C58.6749 14.5114 59.3331 13.9899 59.377 13.9383C59.4063 13.9805 59.4355 14.0228 59.4599 14.0698C60.0401 15.0704 60.752 15.5824 61.6979 15.5824C62.8047 15.5824 63.8335 14.8919 63.9847 14.051C64.0237 13.8396 64.1017 12.9705 64.1017 12.9705C64.1017 12.9705 63.3703 12.994 63.2387 13.0034Z" fill="#333333"/>
<path d="M63.2387 13.0034C62.795 13.0269 62.5658 12.7591 62.5658 12.3035C62.5804 12.1813 63.1948 6.56288 63.4337 4.34557C63.4825 3.90398 63.1509 3.50938 62.6926 3.4624C62.6633 3.4577 62.6341 3.4577 62.6048 3.4577H61.2103C60.8056 3.4577 60.4595 3.73956 60.3912 4.12478L59.5526 11.7397C59.3917 12.1907 59.0699 12.5712 58.6505 12.8202C58.1483 13.1021 57.4608 13.1443 56.8026 12.9423C56.3589 12.8061 55.8567 12.3739 55.8567 11.5941C55.9006 11.2042 56.4077 6.56757 56.6466 4.35026C56.6953 3.90868 56.3638 3.51408 55.9055 3.4671C55.8762 3.4624 55.8469 3.4624 55.8177 3.4624H54.4232C54.0185 3.4624 53.6723 3.74426 53.6041 4.12947C53.6041 4.12947 52.6289 12.8766 52.6289 13.2101C52.6192 13.445 52.6435 13.6752 52.7069 13.9054C53.1945 15.4368 54.55 15.573 54.9205 15.5824C55.5056 15.6012 56.4515 15.559 57.6169 15.0093C58.6749 14.5114 59.3331 13.9899 59.377 13.9383C59.4063 13.9805 59.4355 14.0228 59.4599 14.0698C60.0401 15.0704 60.752 15.5824 61.6979 15.5824C62.8047 15.5824 63.8335 14.8919 63.9847 14.051C64.0237 13.8396 64.1017 12.9705 64.1017 12.9705C64.1017 12.9705 63.3703 12.994 63.2387 13.0034Z" fill="black" fill-opacity="0.2"/>
<path d="M63.2387 13.0034C62.795 13.0269 62.5658 12.7591 62.5658 12.3035C62.5804 12.1813 63.1948 6.56288 63.4337 4.34557C63.4825 3.90398 63.1509 3.50938 62.6926 3.4624C62.6633 3.4577 62.6341 3.4577 62.6048 3.4577H61.2103C60.8056 3.4577 60.4595 3.73956 60.3912 4.12478L59.5526 11.7397C59.3917 12.1907 59.0699 12.5712 58.6505 12.8202C58.1483 13.1021 57.4608 13.1443 56.8026 12.9423C56.3589 12.8061 55.8567 12.3739 55.8567 11.5941C55.9006 11.2042 56.4077 6.56757 56.6466 4.35026C56.6953 3.90868 56.3638 3.51408 55.9055 3.4671C55.8762 3.4624 55.8469 3.4624 55.8177 3.4624H54.4232C54.0185 3.4624 53.6723 3.74426 53.6041 4.12947C53.6041 4.12947 52.6289 12.8766 52.6289 13.2101C52.6192 13.445 52.6435 13.6752 52.7069 13.9054C53.1945 15.4368 54.55 15.573 54.9205 15.5824C55.5056 15.6012 56.4515 15.559 57.6169 15.0093C58.6749 14.5114 59.3331 13.9899 59.377 13.9383C59.4063 13.9805 59.4355 14.0228 59.4599 14.0698C60.0401 15.0704 60.752 15.5824 61.6979 15.5824C62.8047 15.5824 63.8335 14.8919 63.9847 14.051C64.0237 13.8396 64.1017 12.9705 64.1017 12.9705C64.1017 12.9705 63.3703 12.994 63.2387 13.0034Z" fill="black" fill-opacity="0.2"/>
<path d="M63.2387 13.0034C62.795 13.0269 62.5658 12.7591 62.5658 12.3035C62.5804 12.1813 63.1948 6.56288 63.4337 4.34557C63.4825 3.90398 63.1509 3.50938 62.6926 3.4624C62.6633 3.4577 62.6341 3.4577 62.6048 3.4577H61.2103C60.8056 3.4577 60.4595 3.73956 60.3912 4.12478L59.5526 11.7397C59.3917 12.1907 59.0699 12.5712 58.6505 12.8202C58.1483 13.1021 57.4608 13.1443 56.8026 12.9423C56.3589 12.8061 55.8567 12.3739 55.8567 11.5941C55.9006 11.2042 56.4077 6.56757 56.6466 4.35026C56.6953 3.90868 56.3638 3.51408 55.9055 3.4671C55.8762 3.4624 55.8469 3.4624 55.8177 3.4624H54.4232C54.0185 3.4624 53.6723 3.74426 53.6041 4.12947C53.6041 4.12947 52.6289 12.8766 52.6289 13.2101C52.6192 13.445 52.6435 13.6752 52.7069 13.9054C53.1945 15.4368 54.55 15.573 54.9205 15.5824C55.5056 15.6012 56.4515 15.559 57.6169 15.0093C58.6749 14.5114 59.3331 13.9899 59.377 13.9383C59.4063 13.9805 59.4355 14.0228 59.4599 14.0698C60.0401 15.0704 60.752 15.5824 61.6979 15.5824C62.8047 15.5824 63.8335 14.8919 63.9847 14.051C64.0237 13.8396 64.1017 12.9705 64.1017 12.9705C64.1017 12.9705 63.3703 12.994 63.2387 13.0034Z" fill="black" fill-opacity="0.2"/>
<path d="M32.1561 3.45334C31.8294 3.45334 31.5271 3.64125 31.3955 3.92781C31.3955 3.92781 29.7865 7.25847 29.3525 8.4188C29.2501 8.69596 29.0502 9.17043 28.9235 9.65899C28.9088 9.70597 28.8601 9.73415 28.8113 9.72476C28.7723 9.71536 28.7479 9.68717 28.7431 9.64959C28.7431 9.64959 28.5626 8.73354 28.4993 8.4188C28.2799 7.32424 27.8069 5.40758 27.4949 4.08283C27.4071 3.71641 27.0707 3.45804 26.6806 3.45804H25.2715C24.8132 3.45804 24.4377 3.81976 24.4377 4.26134C24.4377 4.32241 24.4426 4.37878 24.4572 4.43985C25.0862 7.04707 26.7391 13.9292 26.7342 13.9339L24.8912 17.894C24.701 18.298 24.8912 18.7725 25.3105 18.9557C25.4178 19.0027 25.5348 19.0262 25.6518 19.0262H27.7143C27.802 18.8101 32.7802 8.13694 34.4331 4.58548C34.6232 4.18148 34.4331 3.70701 34.0138 3.5238C33.9065 3.47683 33.7895 3.45334 33.6725 3.45334H32.1561Z" fill="#333333"/>
<path d="M32.1561 3.45334C31.8294 3.45334 31.5271 3.64125 31.3955 3.92781C31.3955 3.92781 29.7865 7.25847 29.3525 8.4188C29.2501 8.69596 29.0502 9.17043 28.9235 9.65899C28.9088 9.70597 28.8601 9.73415 28.8113 9.72476C28.7723 9.71536 28.7479 9.68717 28.7431 9.64959C28.7431 9.64959 28.5626 8.73354 28.4993 8.4188C28.2799 7.32424 27.8069 5.40758 27.4949 4.08283C27.4071 3.71641 27.0707 3.45804 26.6806 3.45804H25.2715C24.8132 3.45804 24.4377 3.81976 24.4377 4.26134C24.4377 4.32241 24.4426 4.37878 24.4572 4.43985C25.0862 7.04707 26.7391 13.9292 26.7342 13.9339L24.8912 17.894C24.701 18.298 24.8912 18.7725 25.3105 18.9557C25.4178 19.0027 25.5348 19.0262 25.6518 19.0262H27.7143C27.802 18.8101 32.7802 8.13694 34.4331 4.58548C34.6232 4.18148 34.4331 3.70701 34.0138 3.5238C33.9065 3.47683 33.7895 3.45334 33.6725 3.45334H32.1561Z" fill="black" fill-opacity="0.2"/>
<path d="M32.1561 3.45334C31.8294 3.45334 31.5271 3.64125 31.3955 3.92781C31.3955 3.92781 29.7865 7.25847 29.3525 8.4188C29.2501 8.69596 29.0502 9.17043 28.9235 9.65899C28.9088 9.70597 28.8601 9.73415 28.8113 9.72476C28.7723 9.71536 28.7479 9.68717 28.7431 9.64959C28.7431 9.64959 28.5626 8.73354 28.4993 8.4188C28.2799 7.32424 27.8069 5.40758 27.4949 4.08283C27.4071 3.71641 27.0707 3.45804 26.6806 3.45804H25.2715C24.8132 3.45804 24.4377 3.81976 24.4377 4.26134C24.4377 4.32241 24.4426 4.37878 24.4572 4.43985C25.0862 7.04707 26.7391 13.9292 26.7342 13.9339L24.8912 17.894C24.701 18.298 24.8912 18.7725 25.3105 18.9557C25.4178 19.0027 25.5348 19.0262 25.6518 19.0262H27.7143C27.802 18.8101 32.7802 8.13694 34.4331 4.58548C34.6232 4.18148 34.4331 3.70701 34.0138 3.5238C33.9065 3.47683 33.7895 3.45334 33.6725 3.45334H32.1561Z" fill="black" fill-opacity="0.2"/>
<path d="M32.1561 3.45334C31.8294 3.45334 31.5271 3.64125 31.3955 3.92781C31.3955 3.92781 29.7865 7.25847 29.3525 8.4188C29.2501 8.69596 29.0502 9.17043 28.9235 9.65899C28.9088 9.70597 28.8601 9.73415 28.8113 9.72476C28.7723 9.71536 28.7479 9.68717 28.7431 9.64959C28.7431 9.64959 28.5626 8.73354 28.4993 8.4188C28.2799 7.32424 27.8069 5.40758 27.4949 4.08283C27.4071 3.71641 27.0707 3.45804 26.6806 3.45804H25.2715C24.8132 3.45804 24.4377 3.81976 24.4377 4.26134C24.4377 4.32241 24.4426 4.37878 24.4572 4.43985C25.0862 7.04707 26.7391 13.9292 26.7342 13.9339L24.8912 17.894C24.701 18.298 24.8912 18.7725 25.3105 18.9557C25.4178 19.0027 25.5348 19.0262 25.6518 19.0262H27.7143C27.802 18.8101 32.7802 8.13694 34.4331 4.58548C34.6232 4.18148 34.4331 3.70701 34.0138 3.5238C33.9065 3.47683 33.7895 3.45334 33.6725 3.45334H32.1561Z" fill="black" fill-opacity="0.2"/>
</svg>
